<svg xmlns="http://www.w3.org/2000/svg" xml:space="preserve" width="2000" height="338" data-id="lg_omtodBOOW7k7JVQFeq" data-version="1" viewBox="0 0 2000 338"><g data-padding="20"><g transform="translate(10 5.93)scale(.96491)"><rect width="560" height="337.87" x="350.437" y="-399.905" fill="none" rx="0" ry="0" transform="translate(400.5 399.97)"/><path fill="#b02e00" d="m826.267 192.96-2.69 4.78-14.35 36.48q-2.99 8.37-5.38 17.34t-5.08 15.7-8.23 10.61q-5.53 3.89-12.4 5.83-6.88 1.95-14.21 1.65-7.32-.3-13-2.69-12.86-5.98-8.97-19.74 13.75-60.39 25.86-96.87t20.03-57.41q7.93-20.93 16.6-44.25.89-8.67 7.17-15.55t14.8-11.36q8.53-4.49 17.79-6.43 9.27-1.94 16.45-.45 7.18 1.5 10.61 6.58 3.44 5.08.45 14.65-10.76 27.51-15.25 38.87-4.48 11.36-8.07 20.33l-8.37 19.74q6.28.29 15.85-1.8 17.34-3.89 25.11-2.69 0-1.49 1.5-5.08 8.37-36.48 18.83-66.98 7.48-25.11 38.57-26.31 12.26 0 18.54 5.98 6.88 6.28 1.8 17.04-27.51 77.14-38.87 121.7-12.86 51.42-16.9 69.36-4.03 17.94-7.02 21.23t-6.13 4.64q-3.14 1.34-6.13 2.54-2.99 1.19-4.79 5.98h-.89q-2.4 5.38-10.47 8.37t-16.29 2.24q-8.23-.74-13.76-5.98-5.53-5.23-2.84-15.99 2.99-17.05 9.87-36.63 6.88-19.59 10.91-30.65 4.04-11.06 6.73-20.63-2.39 1.2-4.64 1.79-2.24.6-5.53 2.25-3.29 1.64-6.72 2.84-3.44 1.19-6.73 2.39-8.37 3.29-13.76 6.58m31.1-15.25q.3 0 2.99-.9-1.79.6-2.99.9m110.02-44.24q3.89-9.87 18.54-13.46 13.75-3.59 25.71.9 12.26 4.78 11.07 15.55-3.29 10.46-8.23 25.56-4.93 15.1-9.41 30.95-11.96 40.66-13.76 57.41-4.48 26.91-14.95 29-2.99.6-5.68.9-6.58.29-8.37 3.58t-5.98 4.94q-4.19 1.64-9.12 1.49t-10.02-2.39q-5.08-2.24-8.67-6.43-8.37-10.16-3.29-27.21 4.79-32.59 24.22-82.82 9.27-24.82 17.94-37.97m56.51-44.85q-14.65 2.99-23.77-1.8-9.12-4.78-10.61-11.51-1.5-6.73 4.18-13.9 6.58-8.97 19.74-11.66 5.98-.6 8.67-.6t6.58 1.19q9.86.9 12.85 8.68 4.19 6.57.75 14.95-3.44 8.37-18.39 14.65m58.92-60.41q6.57-8.07 15.84-8.97t17.94 2.84 14.8 11.36q6.13 7.63 6.73 16.89l-2.69 8.68q3.29 3.88 5.83 6.27 2.54 2.4 2.84 7.48 1.8 4.19-14.95 33.19-6.88 11.96-14.5 24.96-7.62 13.01-12.41 23.18 3.59-.9 7.18-1.5t7.17-1.49q22.13-5.68 29.9-5.83 7.78-.15 12.86 1.64 13.75 5.38 14.35 16.75-4.18 9.86-31.39 27.5-6.28 3.89-10.17 6.58l-26.01 18.54q-2.09 3.29-2.99 6.28v.3q.6 1.49 7.62 4.18 7.03 2.69 12.11 4.79 11.96 5.38 21.23 14.65 2.99 3.29 3.89 9.72.9 6.42-1.95 11.81-2.84 5.38-10.01 7.77-7.18 2.39-20.03-2.09-18.84-8.37-44.56-37.38-2.99 10.47-5.83 20.48-2.84 10.02-6.13 20.49-4.48 10.16-20.93 9.56-6.57 0-11.81-2.69-5.23-2.69-6.13-7.17-2.39-6.58-2.39-9.72t1.5-7.33q6.87-17.34 8.67-27.65 1.79-10.32 2.39-12.11-8.37-5.39-9.87-17.05-1.79-11.36 5.39-20.33 9.56-3.59 13.75-5.38 1.79-11.36 5.98-24.52 7.47-23.62 11.51-40.96t11.66-39.32q7.63-21.98 13.61-44.4"/><path fill="#b02e00" d="M1270.577 218.67q-5.68 2.69-11.06 4.19-5.39 1.49-12.56 2.99-18.84 3.88-27.21 4.48.9 2.99 8.97 7.18 5.38.9 11.81-1.65 6.43-2.54 13.45-4.78 7.03-2.24 13.76-2.54t12.71 5.08q2.39 5.38 3.88 6.28 1.5.9 2.69.9 1.2 0 2.69.89 1.5.9 4.34 6.88t-1.5 11.36q-4.33 5.39-13.3 9.27-8.97 3.89-20.93 6.28t-23.92 3.29q-26.91 2.09-40.96-4.19-20.34-6.87-26.32-27.2-7.77-26.91 8.68-62.79 7.47-16.75 23.62-35.88 14.05-16.75 31.39-24.22 20.03-8.67 41.86-8.08 23.32.6 32.29 20.34 4.49 10.46 1.8 29.3-4.79 24.52-12.56 34.68-7.77 9.87-23.62 17.94m-17.34-47.24q-15.85-3.29-24.82 17.94-2.69 5.68-4.19 11.96 10.17 1.2 21.53-11.36 4.19-5.09 6.28-10.32t1.2-8.22"/></g><path fill="transparent" stroke="transparent" d="M715 0h570v338H715z"/></g></svg>